<svg xmlns="http://www.w3.org/2000/svg" xmlns:xlink="http://www.w3.org/1999/xlink" width="70" height="20">
    <linearGradient id="b" x2="0" y2="100%">
        <stop offset="0" stop-color="#bbb" stop-opacity=".1"/>
        <stop offset="1" stop-opacity=".1"/>
    </linearGradient>
    <clipPath id="a">
        <rect width="70" height="20" rx="3" fill="#fff"/>
    </clipPath>
    <g clip-path="url(#a)">
        <path fill="#555555" d="M0 0h25v20H0z"/>
        <path fill="#ff8a2c" d="M25 0h45v20H25z"/>
        <path fill="url(#b)" d="M0 0h70v20H0z"/>
    </g>
    <g fill="#fff" text-anchor="middle" font-family="DejaVu Sans,Verdana,Geneva,sans-serif" font-size="110">
        <g transform="translate(5, 3)">
            <rect x="1" y="12" fill="#FFFFFF" width="7" height="1"/><path fill="#FFFFFF" d="M0.3,7.3l1-1.1c0.4,0.5,0.8,0.7,1.3,0.7c0.6,0,1-0.4,1-1.2V1h1.6v4.7c0,0.9-0.2,1.5-0.7,1.9C4.1,8.1,3.4,8.4,2.6,8.4C1.5,8.4,0.8,7.9,0.3,7.3z"/><path fill="#FFFFFF" d="M6.8,1h3.4c0.8,0,1.5,0.2,1.9,0.6c0.3,0.3,0.5,0.7,0.5,1.2l0,0c0,0.8-0.4,1.3-1,1.6C12.5,4.8,13,5.3,13,6.2l0,0c0,1.3-1.1,2-2.7,2H6.8V1z M11,3.1c0-0.5-0.4-0.7-1-0.7H8.4v1.5h1.5C10.6,3.9,11,3.7,11,3.1L11,3.1z M10.2,5.3H8.4v1.6h1.9c0.7,0,1.1-0.2,1.1-0.8l0,0C11.4,5.6,11.1,5.3,10.2,5.3z"/><rect x="1" y="12" fill="#FFFFFF" width="7" height="1"/>
        </g>
        <text x="205" y="150" fill="#010101" fill-opacity=".3" transform="scale(.1)" textLength="10"></text>
        <text x="205" y="140" transform="scale(.1)" textLength="10"></text>
        <text x="465" y="150" fill="#010101" fill-opacity=".3" transform="scale(.1)" textLength="350">official</text>
        <text x="465" y="140" transform="scale(.1)" textLength="350">official</text>
    </g>
</svg>